<svg xmlns="http://www.w3.org/2000/svg" viewBox="0 0 800 560" role="img" aria-labelledby="title desc">
  <title id="title">ForgeMart tool placeholder</title>
  <desc id="desc">Industrial orange toolbox illustration</desc>
  <defs>
    <linearGradient id="bg" x1="0" y1="0" x2="1" y2="1"><stop stop-color="#172129"/><stop offset="1" stop-color="#344550"/></linearGradient>
    <linearGradient id="box" x1="0" y1="0" x2="0" y2="1"><stop stop-color="#ff8a3d"/><stop offset="1" stop-color="#d9520b"/></linearGradient>
  </defs>
  <rect width="800" height="560" rx="38" fill="url(#bg)"/>
  <path d="M260 202v-34c0-40 32-72 72-72h136c40 0 72 32 72 72v34h-48v-28c0-18-14-32-32-32H340c-18 0-32 14-32 32v28z" fill="#98a7b0"/>
  <rect x="145" y="190" width="510" height="280" rx="34" fill="url(#box)"/>
  <path d="M145 280h510v58H145z" fill="#b63e08"/>
  <rect x="365" y="260" width="70" height="96" rx="13" fill="#f7f1e8"/>
  <circle cx="400" cy="304" r="12" fill="#25323a"/>
  <path d="M230 416h340" stroke="#ffb17b" stroke-width="20" stroke-linecap="round" opacity=".55"/>
  <text x="400" y="520" text-anchor="middle" fill="#fff" font-family="Arial,sans-serif" font-size="28" font-weight="700" letter-spacing="4">FORGEMART</text>
</svg>
